<?xml version="1.0" standalone="no"?>
<!DOCTYPE svg PUBLIC "-//W3C//DTD SVG 20010904//EN"
 "http://www.w3.org/TR/2001/REC-SVG-20010904/DTD/svg10.dtd">
<svg version="1.0" xmlns="http://www.w3.org/2000/svg"
 width="1170.000000pt" height="1170.000000pt" viewBox="0 0 1170.000000 1170.000000"
 preserveAspectRatio="xMidYMid meet">

<g transform="translate(0.000000,1170.000000) scale(0.100000,-0.100000)"
fill="#000000" stroke="none">
<path d="M5037 8769 c-97 -23 -180 -86 -245 -188 -72 -111 -102 -228 -102
-399 0 -165 57 -368 134 -476 57 -80 154 -169 221 -201 206 -101 440 -6 554
226 49 101 61 158 61 298 0 255 -80 469 -232 618 -84 84 -93 90 -167 113 -66
21 -157 25 -224 9z"/>
<path d="M6390 8766 c-25 -7 -57 -18 -71 -24 -35 -14 -140 -113 -184 -172 -54
-74 -122 -220 -140 -302 -23 -102 -30 -297 -15 -387 27 -161 139 -315 280
-384 59 -29 73 -32 160 -32 85 0 101 3 154 29 69 34 193 148 240 221 48 73 62
105 93 213 25 88 28 112 28 262 0 199 -18 271 -96 392 -60 91 -93 121 -178
160 -76 35 -198 46 -271 24z"/>
<path d="M7515 7773 c-62 -9 -162 -44 -210 -74 -86 -55 -196 -175 -242 -264
-71 -137 -94 -223 -100 -362 -6 -140 5 -219 44 -293 32 -62 112 -139 184 -176
47 -25 65 -29 139 -29 72 0 94 4 144 28 143 67 265 181 348 327 100 176 114
530 27 701 -47 95 -201 160 -334 142z"/>
<path d="M3930 7749 c-107 -42 -149 -93 -186 -230 -23 -84 -23 -283 0 -394 53
-251 258 -482 481 -539 74 -20 135 -12 211 25 137 68 209 176 226 342 22 206
-42 430 -169 591 -62 80 -178 169 -255 196 -94 33 -236 37 -308 9z"/>
<path d="M5756 7159 c-93 -15 -196 -65 -293 -140 -89 -70 -409 -390 -496 -496
-32 -38 -66 -79 -76 -90 -36 -39 -134 -197 -157 -254 -13 -32 -29 -100 -35
-151 -21 -171 31 -343 131 -430 113 -99 214 -138 356 -138 98 0 145 15 310 99
159 80 220 95 349 88 116 -6 146 -16 315 -101 161 -81 195 -90 323 -84 123 6
197 35 293 116 117 98 159 203 158 392 -1 101 -4 125 -30 195 -30 81 -134 249
-195 315 -18 19 -53 58 -78 85 -344 381 -525 533 -691 578 -77 21 -127 26
-184 16z"/>
<path d="M2414 6586 c-56 -28 -222 -96 -373 -152 l-104 -38 7 -83 c10 -127 64
-306 141 -468 18 -38 55 -117 82 -175 27 -58 77 -148 110 -200 33 -52 70 -115
82 -139 13 -23 43 -68 68 -100 26 -31 62 -81 81 -111 33 -50 159 -214 193
-250 8 -8 34 -40 59 -70 25 -30 52 -63 60 -72 8 -9 40 -46 70 -81 71 -84 486
-497 610 -607 52 -47 97 -87 100 -90 3 -3 48 -45 100 -95 53 -49 147 -139 211
-200 63 -60 157 -150 209 -200 139 -131 297 -282 450 -430 194 -188 418 -397
470 -440 25 -20 97 -87 160 -149 251 -243 501 -460 568 -492 69 -33 113 -5
412 260 74 66 185 168 245 227 61 58 143 137 184 173 116 106 351 327 520 492
86 84 172 167 192 185 20 19 121 115 225 215 104 99 219 208 256 241 227 204
888 851 938 918 14 18 77 93 140 167 63 73 143 171 178 218 35 47 95 127 133
178 38 51 81 117 95 145 15 29 41 72 58 97 37 51 104 175 128 235 9 22 36 83
61 135 25 52 53 113 62 135 27 64 74 240 85 313 14 98 13 122 -7 129 -10 3
-56 20 -103 38 -47 18 -134 52 -195 75 -60 23 -138 53 -173 67 -61 24 -64 24
-77 6 -8 -10 -15 -31 -15 -48 -1 -79 -129 -480 -211 -660 -68 -148 -125 -248
-254 -449 -53 -81 -231 -291 -370 -434 -104 -108 -266 -253 -406 -362 -35 -28
-95 -76 -133 -108 -126 -104 -230 -187 -311 -249 -44 -34 -111 -87 -150 -118
-38 -31 -97 -77 -130 -103 -33 -26 -71 -57 -85 -69 -14 -12 -46 -39 -71 -60
-208 -173 -341 -303 -521 -508 -206 -236 -285 -344 -387 -535 -85 -158 -207
-469 -245 -623 l-22 -90 -18 79 c-10 43 -36 124 -57 179 -21 55 -54 145 -74
200 -117 319 -319 604 -715 1004 -69 70 -143 143 -165 162 -119 104 -427 354
-596 485 -44 34 -143 113 -222 177 -78 63 -178 144 -222 179 -160 126 -252
208 -372 329 -141 144 -380 429 -422 503 -15 28 -59 103 -97 166 -118 194
-236 476 -288 690 -9 36 -23 88 -31 115 -7 28 -19 76 -25 108 -13 67 -21 69
-96 33z"/>
</g>
</svg>
